<svg width="12" height="11" viewBox="0 0 12 11" fill="none" xmlns="http://www.w3.org/2000/svg">
<path d="M9.11849 8.00618L11.3149 10.1472L10.5893 10.8547L8.39336 8.71318C7.5763 9.35179 6.56003 9.69913 5.51285 9.69768C2.96515 9.69768 0.897461 7.68168 0.897461 5.19768C0.897461 2.71368 2.96515 0.697678 5.51285 0.697678C8.06054 0.697678 10.1282 2.71368 10.1282 5.19768C10.1297 6.21868 9.77347 7.20955 9.11849 8.00618ZM8.08977 7.63518C8.7406 6.98262 9.10406 6.10789 9.10259 5.19768C9.10259 3.26368 7.49592 1.69768 5.51285 1.69768C3.52926 1.69768 1.9231 3.26368 1.9231 5.19768C1.9231 7.13118 3.52926 8.69768 5.51285 8.69768C6.4464 8.69911 7.34356 8.34473 8.01285 7.71018L8.08977 7.63518Z" fill="white" fill-opacity="0.3"/>
</svg>
